PathFileType	4	(X/Y/Z)	./resultDataOpenSim/trcMotMarkerGrf/sub06/qtm-05-03.trc
DataRate	CameraRate	NumFrames	NumMarkers	Units	OrigDataRate	OrigDataStartFrame	OrigNumFrames
250.000000	250.000000	7	24	m	250.000000	131	520
Frame#	Time	L.Toe.Tip			R.Toe.Tip			L.Ankle.Lat			R.Ankle.Lat			L.Ankle.Med			R.Ankle.Med			L.Heel			R.Heel			L.Knee.Lat			R.Knee.Lat			L.Knee.Med			R.Knee.Med			L.Thigh.Upper			R.Thigh.Upper			L.ASIS			R.ASIS			V.Sacral			L.Acromium			R.Acromium			C7			L.Elbow			R.Elbow			L.Wrist.Lat			R.Wrist.Lat
		X1	Y1	Z1	X2	Y2	Z2	X3	Y3	Z3	X4	Y4	Z4	X5	Y5	Z5	X6	Y6	Z6	X7	Y7	Z7	X8	Y8	Z8	X9	Y9	Z9	X10	Y10	Z10	X11	Y11	Z11	X12	Y12	Z12	X13	Y13	Z13	X14	Y14	Z14	X15	Y15	Z15	X16	Y16	Z16	X17	Y17	Z17	X18	Y18	Z18	X19	Y19	Z19	X20	Y20	Z20	X21	Y21	Z21	X22	Y22	Z22	X23	Y23	Z23	X24	Y24	Z24

131	0.52	-0.15401779	0.088958632	-0.0084388546	-0.7563452	0.036605815	0.150504	-0.28667884	0.11497454	-0.024340116	-0.89080598	0.067132255	0.16180905	-0.28015084	0.13706057	0.058954176	-0.86129003	0.08699352	0.078714431	-0.3430798	0.08123221	0.033895078	-0.94206959	0.046540216	0.094792147	-0.41244539	0.46558589	-0.031647144	-0.73880304	0.43029291	0.20236336	-0.41560294	0.45962663	0.09307674	-0.75938139	0.42941004	0.070644596	-0.60529858	0.80870117	-0.078064071	-0.65357685	0.78449048	0.26804501	-0.5457129	0.85399978	-0.026312409	-0.55434267	0.84299366	0.22235542	-0.7357366	0.91722519	0.10282417	-0.62954962	1.3311553	-0.082234902	-0.60817206	1.3161575	0.27633675	-0.69764939	1.357649	0.10218032	-0.73074667	1.0379586	-0.12816704	-0.65433739	1.0032641	0.36903719	-0.65595022	0.81623029	-0.20445785	-0.42220761	0.90117285	0.34765568
132	0.524	-0.14026825	0.090935464	-0.008402022	-0.75631262	0.036566128	0.15045129	-0.27340444	0.11557155	-0.024365855	-0.89052688	0.067183308	0.16178966	-0.26719123	0.13761092	0.05906436	-0.8610497	0.086761304	0.078504885	-0.32937096	0.081311259	0.033618477	-0.94203563	0.046687079	0.094787378	-0.40570952	0.46278843	-0.030733771	-0.73454302	0.42868087	0.20235351	-0.40930767	0.45681051	0.094164269	-0.75509265	0.42775894	0.07068074	-0.59802705	0.80539534	-0.077882753	-0.64883672	0.78251534	0.26791494	-0.53862416	0.85114364	-0.026011755	-0.54866085	0.84083392	0.22311244	-0.7299604	0.91475172	0.10284449	-0.62413463	1.3286807	-0.082269187	-0.60279169	1.3136722	0.27648354	-0.69212084	1.3552974	0.10220687	-0.72551893	1.0356817	-0.12790737	-0.6471738	1.0005716	0.36948329	-0.65192217	0.81396298	-0.20514109	-0.41458007	0.90075125	0.34722728
133	0.528	-0.12696691	0.092639109	-0.0083778688	-0.75629123	0.036530359	0.15041246	-0.26049063	0.11609024	-0.024330452	-0.89022359	0.06728704	0.16178536	-0.25449618	0.13820702	0.059233338	-0.86079707	0.086552107	0.078316344	-0.31602005	0.081416688	0.033513268	-0.94200182	0.046872108	0.094789968	-0.39895421	0.46000871	-0.029868082	-0.73023729	0.42702458	0.20234405	-0.40306958	0.45395266	0.095203302	-0.75075939	0.42608739	0.07073042	-0.59077739	0.80200382	-0.077714008	-0.64428589	0.78062476	0.26767442	-0.53154112	0.84820354	-0.025653553	-0.54299967	0.83862056	0.22380181	-0.72393525	0.91216509	0.1027414	-0.61874933	1.3261529	-0.082317932	-0.59751067	1.3111085	0.27664342	-0.68656224	1.3529082	0.10222631	-0.72028732	1.0333535	-0.12770307	-0.64011219	0.99782878	0.36994584	-0.64771345	0.811653	-0.20578805	-0.40698487	0.90022772	0.34679906
134	0.532	-0.11412113	0.094021389	-0.0083698093	-0.75628287	0.036498228	0.15038592	-0.24795464	0.1165065	-0.024232046	-0.88991874	0.067415636	0.16179261	-0.24209904	0.13881744	0.059440285	-0.860537	0.086370774	0.078156439	-0.30309819	0.08152719	0.033575243	-0.94197401	0.047092334	0.094810267	-0.3921477	0.45729227	-0.029046872	-0.72588495	0.42532762	0.20234285	-0.39683468	0.45106305	0.096198671	-0.74641761	0.42442164	0.07078272	-0.58350564	0.79855118	-0.077556341	-0.63987215	0.77880057	0.26735118	-0.52446725	0.84519174	-0.025234245	-0.53737769	0.8363497	0.22439122	-0.71732353	0.90924884	0.10170502	-0.61332646	1.3235737	-0.082382839	-0.5922912	1.3084753	0.27681026	-0.68097434	1.3504829	0.10223265	-0.71504724	1.0309714	-0.12755435	-0.63313398	0.99502199	0.37041102	-0.64334662	0.80930661	-0.20639331	-0.39942512	0.8995998	0.3463744
135	0.536	-0.1017276	0.095076894	-0.0083494589	-0.7562857	0.036470081	0.15037078	-0.23581608	0.11678918	-0.024067685	-0.88962253	0.067548089	0.1618111	-0.23005017	0.13935821	0.059649536	-0.86026886	0.086222993	0.078028184	-0.29063665	0.081607233	0.033748248	-0.94195082	0.047352262	0.094846608	-0.38524771	0.45465894	-0.028272342	-0.72150339	0.42359687	0.20234521	-0.39058829	0.44814934	0.097140432	-0.7420553	0.42278103	0.070829668	-0.57619835	0.79506854	-0.077406446	-0.63553509	0.77701472	0.26697856	-0.51737858	0.84212457	-0.02476589	-0.53180373	0.83402034	0.2248846	-0.71001522	0.90601997	0.099583994	-0.60779036	1.3209464	-0.08245483	-0.58703908	1.3057949	0.27697535	-0.67535611	1.3480139	0.10222168	-0.70978785	1.0285256	-0.12744782	-0.62618793	0.99214447	0.37087004	-0.63893681	0.80690552	-0.20697461	-0.39192172	0.89887195	0.34597039
136	0.54	-0.089790939	0.095826486	-0.008257228	-0.75629563	0.036445744	0.15036591	-0.22409131	0.11689479	-0.023830602	-0.88933485	0.067701821	0.16184133	-0.21839097	0.13974851	0.059866581	-0.85998375	0.086116746	0.077926814	-0.27861805	0.08159277	0.034033914	-0.94192079	0.047672953	0.094876458	-0.37824371	0.45210025	-0.027546206	-0.71711404	0.42183931	0.20235125	-0.38433157	0.44521957	0.098018624	-0.73758692	0.42117344	0.070881052	-0.56886624	0.79158658	-0.077254486	-0.63121435	0.77523894	0.26658927	-0.51022232	0.8390178	-0.024267717	-0.52625943	0.83163055	0.22533325	-0.70242704	0.90272578	0.096942299	-0.60214617	1.3182729	-0.08252797	-0.58169583	1.3030864	0.2771396	-0.6697029	1.3454967	0.1021917	-0.70450063	1.0260119	-0.12737349	-0.61926716	0.98921584	0.37130973	-0.63454386	0.80443652	-0.2075418	-0.38449862	0.89805205	0.34560845
137	0.544	-0.078313013	0.096291204	-0.0080400658	-0.75630944	0.036423178	0.15036866	-0.21279219	0.11677384	-0.023511663	-0.88906003	0.06790172	0.1618766	-0.20714491	0.13993952	0.06012933	-0.85966963	0.086061161	0.077834549	-0.26701757	0.081403303	0.034479139	-0.94186973	0.048076928	0.094874656	-0.37114246	0.44960313	-0.026870333	-0.71272947	0.42006094	0.2023698	-0.37805069	0.44228362	0.098829565	-0.73292342	0.41959124	0.070949802	-0.56152236	0.78812285	-0.077087493	-0.62685002	0.77344667	0.2662159	-0.5029443	0.83587929	-0.023757202	-0.52069954	0.82918407	0.22581373	-0.69517209	0.89964554	0.094488805	-0.596453	1.3155518	-0.082607552	-0.57627855	1.3003563	0.27730783	-0.66401887	1.3429432	0.10213887	-0.69918404	1.0234381	-0.12732651	-0.61239535	0.9862648	0.37172083	-0.63002614	0.80192421	-0.20804975	-0.3771532	0.89714442	0.34528739
